<svg xmlns="http://www.w3.org/2000/svg" viewBox="-66 30.9 122 94" xmlns:v="https://vecta.io/nano"><path fill="#fff" d="M-5 33.5c-32.6 0-59 26.4-59 59s27.7 29.8 60.3 29.8S54 125 54 92.5c0-32.6-26.4-59-59-59zm-45.5 39.4c-1.1 0-2-.9-2-2s.9-2 2-2 2 .9 2 2-.9 2-2 2zm10-12.9c-2.8 3.2-5.1 6.9-5.1 6.9-.3.5-.8.5-1.2.1l-1.3-1.5c-.4-.4-.4-1.1-.1-1.5 0 0 5.7-7.9 9.2-11.1 1.3-1.2 1.3-1.2 4.5-3.5 3.3-2.3 7.1-4.2 7.1-4.2.5-.3 1.2-.1 1.6.3l1.3 1.5c.4.4.3 1-.2 1.2 0 0-9 4.5-12 7.7-2 2.1-1 .9-3.8 4.1zm8 10.9c0-3.9 3.1-7 7-7s7 3.1 7 7-3.1 7-7 7-7-3.1-7-7zM-5 111.2c-9.7 0-17.5-7.8-17.5-17.5s8.4-4.3 18-4.3c9.7 0 17-5.3 17 4.3 0 9.7-7.8 17.5-17.5 17.5zm23.5-33.3c-3.9 0-7-3.1-7-7s3.1-7 7-7 7 3.1 7 7-3.1 7-7 7z"/></svg>