<svg xmlns="http://www.w3.org/2000/svg" viewBox="-279.7 286 194.7 158" fill="#9ca2a7" xmlns:v="https://vecta.io/nano"><path d="M-186.3 351.6c-32.6 0-59 26.4-59 59s27.7 29.8 60.3 29.8 57.7 2.7 57.7-29.8c0-32.6-26.4-59-59-59zm-45.5 39.4c-1.1 0-2-.9-2-2s.9-2 2-2 2 .9 2 2-.9 2-2 2zm10-12.9c-2.8 3.2-5.1 6.9-5.1 6.9-.3.5-.8.5-1.2.1l-1.3-1.5c-.4-.4-.4-1.1-.1-1.5 0 0 5.7-7.9 9.2-11.1 1.3-1.2 1.3-1.2 4.5-3.5 3.3-2.3 7.1-4.2 7.1-4.2.5-.3 1.2-.1 1.6.3l1.3 1.5c.4.4.3 1-.2 1.2 0 0-9 4.5-12 7.7-2 2.1-1 .9-3.8 4.1zm8 10.9c0-3.9 3.1-7 7-7s7 3.1 7 7-3.1 7-7 7-7-3.1-7-7zm27.5 17c9.7 0 17.5 7.8 17.5 17.5s-8.4 4.3-18 4.3c-9.7 0-17 5.3-17-4.3 0-9.7 7.8-17.5 17.5-17.5zm23.5-10c-3.9 0-7-3.1-7-7s3.1-7 7-7 7 3.1 7 7-3.1 7-7 7zm38.8-103.5c5.9 1.2 11.6 3.5 16.1 8.3 7.2 7.6 6.8 19.6-1.4 26.2-3.2 2.6-7.1 4.4-10.9 6.3-3.4 1.7-6.4 3.6-8.3 7.1-1.8 3.3-5.1 4.1-8.6 2.7-2.8-1.1-4.4-4.3-3.8-7.7.6-3.3 2.4-5.9 5.2-7.7 2.7-1.8 5.6-3.3 8.4-4.9 1.4-.8 2.9-1.6 4.3-2.6 3.6-2.5 5.1-6.2 4.1-9.9-.8-3.4-4.1-5.9-8.4-6.4-4.2-.6-7.7.7-10.1 4.3l-2.4 3.2c-2.3 2.7-5 3.4-8.3 2.2-3.4-1.2-4.8-3.7-4-7.3.9-4.6 3.7-7.8 7.5-10.3 6.4-4 13.1-5 20.6-3.5zm-15.3 73.9c-4.6-.9-7.6-5.3-6.7-9.9s5.3-7.5 9.9-6.7c4.7.9 7.6 5.2 6.7 9.9-.9 4.6-5.3 7.6-9.9 6.7z"/></svg>